<?xml version="1.0" encoding="UTF-8" standalone="no"?>
<svg
  width="1111"
  height="48"
  viewBox="0 0 293.95208 12.7"
  xmlns="http://www.w3.org/2000/svg"
>
  <defs
    id="defs2"/>
  <g
    id="layer1">
    <g
      id="g453"
      transform="matrix(0.26458333,0,0,0.14269941,-8.1383784,27.422887)">
      <g
        id="Revuelto"
        transform="matrix(0.3985092,0,0,0.3985092,66.005469,-227.3751)">
        <g
          id="g252">
          <polygon
            fill="#ffffff"
            points="1692.447,179.063 1623.424,284.445 1576.198,311.661 1821.621,311.661 1868.846,284.445 1696.495,284.445 1782.728,152.788 1649.604,152.788 1671.255,179.063 "
            id="polygon250"/>
        </g>
        <g
          id="g256">
          <polygon
            fill="#ffffff"
            points="1425.774,205.508 1443.095,179.063 1632.63,179.063 1610.98,152.788 1387.233,152.788 1301,284.445 1323.426,311.661 1524.775,311.661 1572,284.445 1374.071,284.445 1399.573,245.509 1516.037,245.509 1542.238,205.508 "
            id="polygon254"/>
        </g>
        <g
          id="g260">
          <polygon
            fill="#ffffff"
            points="1015.011,311.664 1277.617,311.664 1255.191,284.448 1341.424,152.791 1268.353,152.791 1182.12,284.448 1065.657,284.448 1151.89,152.791 1078.818,152.791 992.585,284.448 "
            id="polygon258"/>
        </g>
        <g
          id="g264">
          <polygon
            fill="#ffffff"
            points="1040.194,152.788 977.177,152.788 819.573,275.04 806.326,152.788 502.29,152.788 416.057,284.445 438.482,311.661 642.631,311.661 689.856,284.445 489.128,284.445 514.63,245.509 631.094,245.509 657.294,205.508 540.83,205.508 558.151,179.063 747.687,179.063 747.688,179.063 762.086,311.661 837.52,311.661 "
            id="polygon262"/>
        </g>
        <g
          id="g268">
          <polygon
            fill="#ffffff"
            points="166.529,205.508 97,311.661 170.071,311.661 213.618,245.176 271.615,245.533 326.787,311.661 399.858,311.661 345.135,245.248 402.927,245.509 463.665,152.788 170.824,152.788 149.655,145.889 145.55,88.336 116.519,159.002 150.981,179.063 373.384,179.063 356.063,205.508 "
            id="polygon266"/>
        </g>
        <g
          id="g272">
          <polygon
            fill="#ffffff"
            points="1917.473,284.445 1870.248,311.661 1972.718,311.661 2059.568,179.063 2154.334,179.063 2171.544,152.788 1814.169,152.788 1891.727,179.063 1986.497,179.063 "
            id="polygon270"/>
        </g>
        <path
          fill="#ffffff"
          d="m 2514,88.664 -49.179,53.762 -36.5,10.361 H 2210.17 l -86.233,131.657 22.426,27.217 h 222.354 l 77.999,-119.086 45.564,-33.573 z m -200.528,195.781 h -116.464 l 69.023,-105.382 h 116.464 z"
          id="path274"/>
      </g>
    </g>
  </g>
</svg>
