<?xml version="1.0" encoding="UTF-8" standalone="no"?>
<!-- Created with Inkscape (http://www.inkscape.org/) -->

<svg
  width="1111"
  height="48"
  viewBox="0 0 293.95208 12.7"
  xmlns="http://www.w3.org/2000/svg">
  <defs
    id="defs2">
    <mask
      id="mask-2"
      fill="#ffffff">
      <polygon
        id="use652"
        points="153.22831,63.999024 0.088735207,63.999024 0.088735207,0.72600974 153.22831,0.72600974 "/>
    </mask>
    <mask
      id="mask-4"
      fill="#ffffff">
      <polygon
        id="use660"
        points="153.79264,63.689648 0.76130405,63.689648 0.76130405,0.48517333 153.79264,0.48517333 "/>
    </mask>
    <mask
      id="mask-6"
      fill="#ffffff">
      <polygon
        id="use669"
        points="138.2011,63.51449 0,63.51449 0,0.57559252 138.2011,0.57559252 "/>
    </mask>
    <mask
      id="mask-2-5"
      fill="#ffffff">
      <polygon
        id="use1037"
        points="137.87295,63.990492 0,63.990492 0,0.15910261 137.87295,0.15910261 "/>
    </mask>
    <mask
      id="mask-4-2"
      fill="#ffffff">
      <polygon
        id="use1046"
        points="142.70263,41 0.48323147,41 0.48323147,0.35534374 142.70263,0.35534374 "/>
    </mask>
  </defs>
  <g
    id="layer1"
    transform="matrix(0.53933638,0,0,0.53933638,88.016899,-18.163479)"
  >
    <g
      id="urus"
      stroke="none"
      stroke-width="1"
      fill="none"
      fill-rule="evenodd"
      transform="matrix(0.36792899,0,0,0.36792899,-95.250578,-1.2757952)">
      <g
        id="Group-17"
        transform="translate(247,95)">
        <g
          id="Group-3">
          <g
            id="Fill-1-Clipped">
            <mask
              id="mask1195"
              fill="#ffffff">
              <polygon
                id="use1193"
                points="0,0.15910261 137.87295,0.15910261 137.87295,63.990492 0,63.990492 "/>
            </mask>
            <g
              id="g1040"/>
            <path
              d="m 27.916977,46.428024 h 82.034263 v -2.146695 c 0,-8.371096 -0.0266,-16.744226 0.043,-25.115322 0.006,-0.771183 0.3969,-1.882174 0.98405,-2.256574 8.79304,-5.595652 17.6495,-11.0956695 26.70236,-16.75033039 0.0675,0.64706087 0.15753,1.12116519 0.15753,1.59323479 0.008,14.3879476 -0.008,28.7779306 0.0348,43.1679126 0.004,1.200522 -0.39081,1.87607 -1.40146,2.500748 -8.47389,5.251774 -16.90277,10.570696 -25.38075,15.814331 -0.73241,0.451721 -1.70827,0.726417 -2.57162,0.726417 -26.368888,0.03866 -52.73982,0.03866 -79.110753,-0.002 -0.92063,-0.002 -1.959919,-0.311321 -2.743477,-0.7956 C 18.242179,57.955068 9.8460346,52.705329 1.4928525,47.386407 0.80544888,46.948929 0.06689911,45.937642 0.06280742,45.188842 -0.0210722,30.406146 0.00143209,15.625485 0.00552378,0.84278957 c 0,-0.12005218 0.06137533,-0.24213914 0.13911741,-0.53514783 C 0.60904783,0.53350261 1.0652711,0.70645913 1.4723941,0.96080696 9.8726306,6.2044417 18.254455,11.474529 26.677195,16.683572 c 0.977914,0.604331 1.268424,1.275809 1.262286,2.368487 -0.04092,8.373131 -0.0225,16.744226 -0.0225,25.115322 z"
              id="Fill-1"
              fill="#ffffff"
              fill-rule="nonzero"
              mask="url(#mask-2-5)"/>
          </g>
        </g>
        <path
          d="m 347.97387,46.332623 h 82.02456 v -3.603648 c 0,-7.948864 -0.0307,-15.895686 0.0471,-23.84455 0.008,-0.745652 0.50423,-1.795695 1.11096,-2.1818 8.64786,-5.517832 17.35312,-10.9457762 26.04608,-16.39006365 0.15373,-0.0960156 0.34435,-0.13074462 0.7625,-0.28396097 V 1.4259335 c 0,14.4493225 -0.0184,28.9006885 0.0349,43.3500115 0.004,1.282932 -0.38951,1.999984 -1.47178,2.67005 -8.38549,5.193013 -16.7177,10.47387 -25.11345,15.652582 -0.88754,0.547493 -2.07434,0.86414 -3.12175,0.866183 -26.23056,0.04699 -52.45907,0.04699 -78.68963,0 -1.04742,-0.002 -2.22602,-0.343204 -3.11766,-0.89274 -8.3937,-5.178713 -16.7505,-10.420755 -25.07245,-15.713869 -0.64567,-0.41062 -1.35283,-1.352389 -1.35693,-2.051056 -0.0758,-14.908972 -0.0568,-29.819987 -0.0492,-44.72895865 0,-0.11848731 0.0717,-0.23493173 0.18243,-0.57813635 2.86759,1.7813954 5.69419,3.5219331 8.50643,5.2828996 5.9627,3.7343931 11.89876,7.5116864 17.89836,11.1888794 1.12121,0.688452 1.41637,1.456576 1.40817,2.696607 -0.0533,8.275726 -0.0287,16.553494 -0.0287,24.82922 z"
          id="Fill-4"
          fill="#ffffff"
          fill-rule="nonzero"/>
        <g
          id="Group-8"
          transform="translate(160,23)">
          <g
            id="Fill-6-Clipped">
            <mask
              id="mask1204"
              fill="#ffffff">
              <polygon
                id="use1202"
                points="0.48323147,0.35534374 142.70263,0.35534374 142.70263,41 0.48323147,41 "/>
            </mask>
            <g
              id="g1049"/>
            <path
              d="M 0.48323147,17.454753 C 8.8752567,12.221528 17.285739,7.0208068 25.64085,1.7306986 c 1.572992,-0.9954504 3.129577,-1.37737833 4.983534,-1.37536285 34.874484,0.0406467 69.748966,0.030489 104.623456,0.030489 h 2.12671 c 0.0533,0.12595495 0.1046,0.24987837 0.15792,0.37583333 C 128.50878,6.391032 119.4851,12.020406 110.25839,17.775735 c 10.80176,7.683252 21.46201,15.262896 32.44424,23.074135 -0.87161,0.06704 -1.35561,0.138144 -1.8437,0.140175 -11.33908,0.0061 -22.67816,0.03657 -34.01724,-0.04469 -1.15052,-0.0081 -2.47946,-0.428653 -3.41874,-1.088901 C 93.587132,32.955338 83.835402,25.936397 73.993435,19.045442 72.955711,18.318154 71.491414,17.846838 70.221946,17.842775 47.609416,17.771672 24.996887,17.789955 2.3843574,17.789955 H 0.61243421 C 0.56936663,17.678221 0.52629905,17.566487 0.48323147,17.454753"
              id="Fill-6"
              fill="#ffffff"
              fill-rule="nonzero"
              mask="url(#mask-4-2)"/>
          </g>
        </g>
        <path
          d="m 296.91411,17.998983 h -1.92434 c -35.03885,0 -70.07771,0.01246 -105.11451,-0.04984 -1.34356,-0.0021 -2.84868,-0.473445 -3.99796,-1.189844 C 177.65644,11.626153 169.5092,6.3746425 161.34151,1.1522031 160.98159,0.92378623 160.66462,0.62892086 160,0.11186821 c 0.95501,-0.05191292 1.5092,-0.11005539 2.06544,-0.11005539 35.23517,-0.002076513 70.47239,-0.01038258 105.70757,0.03945382 1.08998,0.0020765 2.31288,0.39661469 3.24744,0.98426886 8.31902,5.2265925 16.58691,10.5362455 24.86912,15.8251335 0.37832,0.240876 0.74029,0.50667 1.11043,0.762082 -0.0286,0.128744 -0.0573,0.257488 -0.0859,0.386232"
          id="Fill-9"
          fill="#ffffff"
          fill-rule="nonzero"/>
        <path
          d="m 617,0.12324867 c -0.74023,0.54806424 -1.11545,0.85946438 -1.51921,1.11896453 -8.25471,5.2938023 -16.49718,10.6021368 -24.78451,15.8419628 -0.83404,0.525228 -1.93113,0.876072 -2.90383,0.878148 -35.33333,0.0436 -70.6687,0.03737 -105.99999,0.03737 H 480 c 0.70353,-0.556368 1.05223,-0.884376 1.4458,-1.137648 8.48106,-5.430818 16.95804,-10.8595608 25.45949,-16.25301112 0.56486,-0.35707215 1.31733,-0.57920425 1.98211,-0.57920425 35.59434,-0.03114001 71.19277,-0.03114001 106.78712,-0.0290640103 0.29364,0 0.58933,0.0519000203 1.32548,0.1224840503"
          id="Fill-11"
          fill="#ffffff"
          fill-rule="nonzero"/>
        <path
          d="m 480,63.856492 c 4.76664,-3.091347 9.17618,-5.962781 13.59797,-8.81746 4.2708,-2.758336 8.53547,-5.527144 12.84299,-8.220553 0.73458,-0.458676 1.68546,-0.785404 2.5384,-0.785404 35.49267,-0.03979 70.9833,-0.03351 106.47801,-0.03142 0.37138,0 0.74683,0.03351 1.54263,0.06912 -0.70602,0.53198 -1.07739,0.85033 -1.48141,1.112131 -8.14981,5.267437 -16.28941,10.555819 -24.48003,15.758329 -0.94067,0.596907 -2.1711,1.013694 -3.2689,1.015788 -35.36208,0.05236 -70.72416,0.04398 -106.0842,0.03979 -0.42646,0 -0.85089,-0.06912 -1.68546,-0.140325"
          id="Fill-13"
          fill="#ffffff"
          fill-rule="nonzero"/>
        <path
          d="m 481.14915,23.000687 h 1.96348 c 34.9932,0 69.9864,-0.0099 104.97755,0.04563 1.28311,0.002 2.72558,0.40872 3.81662,1.061483 8.31975,4.972107 16.57208,10.053338 24.84279,15.100839 0.25743,0.156743 0.50874,0.321422 1.25041,0.789665 h -2.21683 c -35.12396,0 -70.24792,0.01587 -105.37188,-0.0496 -1.39957,-0.002 -2.97076,-0.484116 -4.17418,-1.200369 -8.04801,-4.791556 -16.02042,-9.708108 -24.01326,-14.586963 -0.42089,-0.255946 -0.81726,-0.547606 -1.22385,-0.823393 0.049,-0.113093 0.10012,-0.224201 0.14915,-0.337294"
          id="Fill-15"
          fill="#ffffff"
          fill-rule="nonzero"/>
      </g>
    </g>
  </g>
</svg>
